<svg width="24" height="24" viewBox="0 0 24 24" fill="none" xmlns="http://www.w3.org/2000/svg">
<mask id="mask0_1815_3393" style="mask-type:alpha" maskUnits="userSpaceOnUse" x="0" y="0" width="24" height="24">
<rect width="24" height="24" fill="#797EF3"/>
</mask>
<g mask="url(#mask0_1815_3393)">
<path d="M3.27592 6.84387C3.91334 5.00261 6.03905 3.81377 8.98278 3.43127C11.867 3.0565 15.1346 3.52715 17.4142 4.58254C19.6797 5.63143 21.0651 7.16111 21.7106 8.96888C22.3624 10.7946 22.3013 13.0232 21.4373 15.5188C20.6161 17.891 19.0174 19.4297 17.0468 20.1922C15.0569 20.9621 12.6255 20.9613 10.1617 20.1083C7.81222 19.295 5.65043 17.1997 4.29257 14.6187C2.93337 12.0352 2.47651 9.15308 3.27592 6.84387Z" fill="#89BCD9" stroke="#89BCD9" stroke-width="2"/>
<path d="M10.825 13.225L8.675 11.075C8.49167 10.8917 8.25833 10.8 7.975 10.8C7.69167 10.8 7.45833 10.8917 7.275 11.075C7.09167 11.2583 7 11.4917 7 11.775C7 12.0583 7.09167 12.2917 7.275 12.475L10.125 15.325C10.325 15.525 10.5583 15.625 10.825 15.625C11.0917 15.625 11.325 15.525 11.525 15.325L17.175 9.675C17.3583 9.49167 17.45 9.25833 17.45 8.975C17.45 8.69167 17.3583 8.45833 17.175 8.275C16.9917 8.09167 16.7583 8 16.475 8C16.1917 8 15.9583 8.09167 15.775 8.275L10.825 13.225Z" fill="#F8F5EC"/>
</g>
</svg>
