<svg width="27" height="31" viewBox="0 0 27 31" fill="none" xmlns="http://www.w3.org/2000/svg">
<path d="M6.47823 13.3245L6.07656 13.7979L6.32265 14.3679C7.97269 18.1896 10.6424 21.3361 13.9318 23.3224L14.6605 23.7625L15.2112 23.1134L17.6176 20.2775C17.623 20.2711 17.6279 20.2661 17.632 20.2623C18.9585 20.7754 20.3908 21.0538 21.8593 21.0558C21.8649 21.06 21.8738 21.0677 21.8855 21.0815C21.9251 21.1282 21.9693 21.2191 21.9693 21.3449V25.8437C21.9693 25.9696 21.9251 26.0605 21.8855 26.1072C21.8738 26.1209 21.865 26.1287 21.8593 26.1328C12.2959 26.1224 4.28125 16.9245 4.28125 5.21875C4.28125 5.0929 4.32545 5.002 4.36505 4.95534C4.37673 4.94157 4.38559 4.93382 4.39124 4.92969H8.18705C8.1927 4.93382 8.20157 4.94157 8.21324 4.95534C8.25284 5.002 8.29704 5.0929 8.29704 5.21875C8.29704 6.91776 8.52732 8.55284 8.95545 10.0829C8.99943 10.2535 8.95393 10.4068 8.88455 10.4886L6.47823 13.3245ZM21.8521 21.0517C21.8522 21.0516 21.8532 21.052 21.8553 21.0532C21.8531 21.0525 21.8521 21.0518 21.8521 21.0517ZM21.8521 26.137C21.8521 26.1368 21.8531 26.1362 21.8553 26.1355C21.8532 26.1367 21.8521 26.1371 21.8521 26.137ZM4.39845 4.92553C4.39847 4.92566 4.39741 4.9263 4.39521 4.92703C4.39732 4.92576 4.39842 4.92539 4.39845 4.92553ZM8.17985 4.92553C8.17987 4.92539 8.18097 4.92576 8.18309 4.92703C8.18088 4.9263 8.17982 4.92566 8.17985 4.92553Z" stroke="#F8F5EC" stroke-width="2"/>
</svg>
