<svg width="30" height="30" viewBox="0 0 30 30" fill="none" xmlns="http://www.w3.org/2000/svg">
<g opacity="0.6">
<path d="M5.25 9.7V10.1544V10.8V20.5C5.25 21.3646 5.93789 22.25 7 22.25H23.1C24.0142 22.25 24.75 21.5142 24.75 20.6V10.8V10.1544V9.7V9.56222V9.5C24.75 8.63536 24.0621 7.75 23 7.75H7C5.93789 7.75 5.25 8.63536 5.25 9.5V9.56222V9.7ZM0.75 15C0.75 7.11421 7.11421 0.75 15 0.75C22.8858 0.75 29.25 7.11421 29.25 15C29.25 22.8858 22.8858 29.25 15 29.25C7.11421 29.25 0.75 22.8858 0.75 15Z" stroke="#262E34" stroke-width="1.5"/>
</g>
</svg>
