<svg width="32" height="36" viewBox="0 0 32 36" fill="none" xmlns="http://www.w3.org/2000/svg">
<path d="M0.182509 0.00634354C0.182509 0.145901 0.17616 0.241055 0.182509 0.336208C0.423768 2.97512 0.665026 5.61404 0.899935 8.25929C1.23008 12.002 1.55387 15.7447 1.88402 19.481C2.2586 23.6804 2.63953 27.8735 3.00142 32.073C3.02682 32.3774 3.13475 32.5107 3.42045 32.5868C7.48375 33.7032 11.5343 34.826 15.5976 35.9362C15.8706 36.0123 16.2008 36.025 16.4738 35.9489C20.5498 34.8324 24.6194 33.6969 28.6954 32.5741C29.0065 32.4853 29.1145 32.3457 29.1399 32.0285C29.2668 30.4427 29.4192 28.8504 29.5589 27.2645C29.7938 24.6383 30.0224 22.0121 30.2573 19.3859C30.5303 16.3029 30.8096 13.2263 31.0826 10.1433C31.2858 7.84696 31.5016 5.55694 31.7048 3.26058C31.8 2.18218 31.8826 1.10378 31.9715 0H0.182509V0.00634354ZM25.8384 9.16642C25.6289 11.4882 25.4194 13.8162 25.2099 16.138C24.9686 18.8086 24.7274 21.4792 24.4861 24.1435C24.4163 24.9111 24.3147 25.6787 24.2956 26.4526C24.2829 26.8649 24.1052 26.9727 23.7623 27.0679C21.3117 27.7276 18.8673 28.4064 16.423 29.0788C16.3151 29.1105 16.2135 29.1486 16.1056 29.1803C16.0675 29.1613 16.0294 29.1486 15.9849 29.1295C13.3692 28.4191 10.7534 27.7023 8.13768 26.9791C8.02975 26.9474 7.89008 26.7761 7.87738 26.6556C7.69326 24.6764 7.52819 22.6972 7.35042 20.6799H11.3439C11.4137 21.4729 11.4899 22.2785 11.5534 23.0905C11.6105 23.839 11.6042 23.839 12.3089 24.0293C13.5723 24.3655 14.8421 24.6954 16.1056 25.0253L16.0929 24.9936C17.4769 24.6256 18.861 24.2641 20.245 23.8708C20.372 23.8327 20.518 23.6297 20.5371 23.4901C20.6196 22.8812 20.6641 22.2658 20.7149 21.6569C20.7974 20.6736 20.8799 19.6904 20.9688 18.6627H16.0929L16.1056 18.6373C16.0738 18.6373 16.0357 18.6373 16.004 18.6373H7.1663C7.04567 17.3242 6.93139 16.0238 6.81076 14.6853H16.0103C16.0421 14.6853 16.0802 14.6853 16.1119 14.6853L16.0992 14.6599H21.3244C21.445 13.2961 21.5656 11.9639 21.6862 10.6064H16.0929L16.1056 10.581C16.0738 10.581 16.0357 10.581 16.004 10.581C12.874 10.5874 9.74396 10.5874 6.61395 10.5937C6.56951 10.5937 6.52506 10.5747 6.44253 10.5493C6.32825 9.25523 6.20762 7.96115 6.09334 6.629H16.004C16.0357 6.629 16.0738 6.629 16.1056 6.629L16.0929 6.60363H26.0479C25.9781 7.49172 25.9083 8.32907 25.8384 9.16642Z" fill="#89BCD9"/>
</svg>
