<svg width="30" height="31" viewBox="0 0 30 31" fill="none" xmlns="http://www.w3.org/2000/svg">
<g opacity="0.6">
<path d="M0.750002 16V16.0004C0.748386 18.9918 1.68878 21.9077 3.43777 24.3345C5.1744 26.7441 7.62066 28.55 10.4337 29.5002C10.4808 29.5058 10.5148 29.5057 10.5375 29.5039C10.5373 29.3821 10.5351 29.1717 10.5322 28.8951C10.5308 28.766 10.5293 28.6225 10.5278 28.4669C10.5252 28.2028 10.5226 27.9065 10.5207 27.592C8.99554 27.7538 7.88562 27.5273 7.07914 27.075C6.12418 26.5395 5.71231 25.7535 5.52313 25.2271C5.4581 25.0656 5.26303 24.6791 5.00504 24.2866C4.87606 24.0904 4.74124 23.908 4.61119 23.7611C4.47777 23.6103 4.37933 23.5312 4.32506 23.4997C4.15361 23.4073 3.96793 23.2843 3.80338 23.1458C3.65274 23.0189 3.44576 22.8182 3.32766 22.5592C3.26484 22.4215 3.20257 22.2129 3.24522 21.969C3.29143 21.7046 3.44255 21.5018 3.62352 21.3689C3.92513 21.1473 4.32471 21.1048 4.65725 21.1001C5.49368 21.0868 6.16964 21.4724 6.64123 21.8683C7.11462 22.2657 7.4442 22.7238 7.61052 22.9892L7.61508 22.9965L7.61947 23.0039C8.1689 23.9269 8.82889 24.2037 9.41105 24.2573C9.87115 24.2996 10.3229 24.2037 10.6786 24.0826C10.7526 23.7516 10.8554 23.4505 10.9809 23.18C9.63444 22.9207 8.26872 22.4422 7.15228 21.5001C5.65492 20.2367 4.725 18.2449 4.725 15.2125C4.725 13.5579 5.26297 12.1482 6.16723 11.0163C5.95081 10.2467 5.73167 8.76315 6.46614 6.92696L6.59846 6.59617L6.93845 6.48975L7.1625 7.2055C6.93845 6.48975 6.93918 6.48952 6.93991 6.48929L6.94139 6.48884L6.94444 6.4879L6.95092 6.48596L6.96534 6.48183C6.97561 6.47897 6.98718 6.47593 7.00007 6.4728C7.02585 6.46653 7.05682 6.45989 7.09305 6.45356C7.1656 6.4409 7.25869 6.42958 7.37282 6.42491C7.60154 6.41554 7.91097 6.43299 8.30518 6.51695C9.04127 6.67373 10.0678 7.06116 11.42 7.93357C12.6024 7.63512 13.8179 7.48517 15.0382 7.4875M0.750002 16H29.25C29.2491 18.9857 28.3121 21.896 26.5706 24.3213C24.8398 26.7318 22.4011 28.5425 19.594 29.5023C19.5522 29.5086 19.5213 29.5097 19.5 29.509C19.5001 29.3408 19.5022 29.0564 19.505 28.6771C19.5065 28.4832 19.5081 28.2646 19.5097 28.024C19.5146 27.306 19.5195 26.3996 19.5195 25.3945C19.5195 24.5155 19.3544 23.7748 19.0785 23.1804C20.4246 22.9227 21.7928 22.4479 22.9121 21.5088C24.4152 20.2478 25.35 18.2551 25.35 15.2125C25.35 13.5405 24.8102 12.1445 23.9079 11.0175C24.1242 10.2479 24.3432 8.76443 23.6089 6.92846L23.4791 6.60397L23.1471 6.49464L22.9125 7.207C23.1471 6.49464 23.1464 6.4944 23.1457 6.49416L23.1442 6.49368L23.1411 6.49268L23.1346 6.49062L23.12 6.48623C23.1097 6.4832 23.098 6.47996 23.0851 6.47661C23.0591 6.46991 23.0279 6.46278 22.9914 6.45592C22.9183 6.44219 22.8246 6.42966 22.7097 6.42377C22.4794 6.41195 22.1683 6.42701 21.7724 6.50953C21.0336 6.66356 20.0057 7.05115 18.654 7.931C17.4848 7.63429 16.2599 7.48756 15.0382 7.4875M0.750002 16C0.750002 8.12671 7.12672 1.75 15 1.75M0.750002 16L15 1.75M15.0382 7.4875C15.038 7.4875 15.0377 7.4875 15.0375 7.4875V8.2375L15.039 7.4875C15.0387 7.4875 15.0385 7.4875 15.0382 7.4875ZM15 1.75C22.8732 1.75 29.2499 8.1266 29.25 15.9998L15 1.75Z" stroke="#262E34" stroke-width="1.5"/>
</g>
</svg>
