<svg width="30" height="30" viewBox="0 0 30 30" fill="none" xmlns="http://www.w3.org/2000/svg">
<path d="M15 0.257812C6.7125 0.257812 2.18932e-06 6.97031 2.18932e-06 15.2578C-0.00169914 18.4067 0.988222 21.4762 2.82933 24.0308C4.67043 26.5854 7.26922 28.4954 10.257 29.4898C11.007 29.6203 11.2875 29.1703 11.2875 28.7758C11.2875 28.4203 11.268 27.2398 11.268 25.9828C7.5 26.6773 6.525 25.0648 6.225 24.2203C6.0555 23.7883 5.325 22.4578 4.6875 22.1008C4.1625 21.8203 3.4125 21.1258 4.668 21.1078C5.85 21.0883 6.693 22.1953 6.975 22.6453C8.325 24.9133 10.482 24.2758 11.343 23.8828C11.475 22.9078 11.868 22.2523 12.3 21.8773C8.9625 21.5023 5.475 20.2078 5.475 14.4703C5.475 12.8383 6.0555 11.4898 7.0125 10.4383C6.8625 10.0633 6.3375 8.52581 7.1625 6.46331C7.1625 6.46331 8.418 6.07031 11.2875 8.00231C12.5086 7.6634 13.7703 7.49283 15.0375 7.49531C16.3125 7.49531 17.5875 7.66331 18.7875 8.00081C21.6555 6.05081 22.9125 6.46481 22.9125 6.46481C23.7375 8.52731 23.2125 10.0648 23.0625 10.4398C24.018 11.4898 24.6 12.8203 24.6 14.4703C24.6 20.2273 21.0945 21.5023 17.757 21.8773C18.3 22.3453 18.7695 23.2453 18.7695 24.6523C18.7695 26.6578 18.75 28.2703 18.75 28.7773C18.75 29.1703 19.032 29.6383 19.782 29.4883C22.7595 28.483 25.3469 26.5693 27.1799 24.0165C29.0128 21.4638 29.9991 18.4005 30 15.2578C30 6.97031 23.2875 0.257812 15 0.257812Z" fill="#89BCD9"/>
</svg>
