<svg width="30" height="30" viewBox="0 0 30 30" fill="none" xmlns="http://www.w3.org/2000/svg">
<path d="M0.500002 15V15.0003C0.498358 18.0442 1.45526 21.0113 3.23496 23.4807C5.00683 25.9392 7.50471 27.7801 10.3769 28.7449C10.6163 28.7797 10.7002 28.7169 10.7215 28.698C10.7557 28.6677 10.7875 28.606 10.7875 28.518C10.7875 28.3973 10.7852 28.179 10.7822 27.8903C10.7808 27.7616 10.7793 27.6188 10.7778 27.4645C10.7744 27.1233 10.7711 26.7285 10.7693 26.3106C9.13482 26.5278 7.99634 26.3028 7.20143 25.857C6.31371 25.3591 5.93291 24.63 5.7569 24.1384C5.68543 23.9592 5.48046 23.5547 5.21395 23.1493C5.08071 22.9466 4.9387 22.7539 4.79841 22.5954C4.65546 22.4338 4.53496 22.3315 4.44658 22.2812C4.28831 22.1961 4.11583 22.082 3.96439 21.9545C3.82246 21.835 3.6499 21.6633 3.55513 21.4555C3.50523 21.3461 3.46034 21.1902 3.49148 21.012C3.525 20.8203 3.63455 20.671 3.77153 20.5704C4.00516 20.3987 4.33415 20.3548 4.66029 20.3501C4.66047 20.3501 4.66065 20.35 4.66083 20.35L4.668 20.85C5.85 20.8305 6.693 21.9375 6.975 22.3875L0.500002 15ZM0.500002 15C0.500002 6.98864 6.98864 0.5 15 0.5M0.500002 15L15 0.5M11.3593 21.994C11.154 22.347 10.9913 22.7726 10.8947 23.2705L11.3593 21.994ZM11.3593 21.994C9.92948 21.7548 8.47617 21.2901 7.3135 20.3091C5.88557 19.1042 4.975 17.1903 4.975 14.2125C4.975 12.567 5.52508 11.1776 6.44437 10.0719C6.23082 9.3863 5.94722 7.89741 6.69826 6.0198L6.78647 5.79928L7.01314 5.72833L7.1625 6.2055C7.01314 5.72833 7.01362 5.72818 7.01411 5.72803L7.01511 5.72772L7.0172 5.72708L7.02175 5.72571L7.03229 5.72269C7.03996 5.72056 7.04891 5.71821 7.05915 5.71572C7.07963 5.71074 7.10524 5.70522 7.13605 5.69984C7.19773 5.68907 7.27987 5.67893 7.38305 5.6747C7.58971 5.66624 7.8782 5.68162 8.2531 5.76147C8.96939 5.91403 9.99757 6.30105 11.3758 7.20299C12.5713 6.89164 13.8021 6.73512 15.038 6.7375C16.2772 6.73754 17.5186 6.891 18.6986 7.2007C20.0762 6.29091 21.1052 5.904 21.8235 5.75427C22.1995 5.67588 22.4892 5.66278 22.6969 5.67344C22.8006 5.67876 22.8832 5.68996 22.9452 5.70162C22.9762 5.70744 23.002 5.71336 23.0226 5.71868C23.0329 5.72134 23.0419 5.72385 23.0496 5.72611L23.0602 5.72932L23.0648 5.73076L23.0669 5.73144L23.0679 5.73177C23.0684 5.73193 23.0689 5.73209 22.9125 6.207L23.0689 5.73209L23.2902 5.80498L23.3767 6.0213C24.1277 7.89879 23.8442 9.38761 23.6307 10.0733C24.5481 11.175 25.1 12.5495 25.1 14.2125C25.1 17.2004 24.1847 19.1148 22.7514 20.3173C21.5855 21.2955 20.1293 21.7562 18.6998 21.9941C19.0468 22.5901 19.2695 23.3907 19.2695 24.3945C19.2695 25.3988 19.2646 26.3046 19.2597 27.0223C19.2581 27.2619 19.2565 27.4799 19.255 27.6735C19.2522 28.0619 19.25 28.3518 19.25 28.5195C19.25 28.6079 19.283 28.6744 19.3187 28.7065C19.3379 28.7237 19.4178 28.787 19.6548 28.7457C22.5195 27.7709 25.0085 25.9255 26.7737 23.4671C28.5457 20.9993 29.4991 18.038 29.5 15L11.3593 21.994ZM15 0.5C23.0113 0.5 29.4999 6.98857 29.5 14.9999L15 0.5Z" stroke="#89BCD9"/>
</svg>
