<svg width="30" height="31" viewBox="0 0 30 31" fill="none" xmlns="http://www.w3.org/2000/svg">
<path d="M15 0.777344C6.7125 0.777344 2.18932e-06 7.48984 2.18932e-06 15.7773C-0.00169914 18.9263 0.988222 21.9958 2.82933 24.5504C4.67043 27.105 7.26922 29.0149 10.257 30.0093C11.007 30.1398 11.2875 29.6898 11.2875 29.2953C11.2875 28.9398 11.268 27.7593 11.268 26.5023C7.5 27.1968 6.525 25.5843 6.225 24.7398C6.0555 24.3078 5.325 22.9773 4.6875 22.6203C4.1625 22.3398 3.4125 21.6453 4.668 21.6273C5.85 21.6078 6.693 22.7148 6.975 23.1648C8.325 25.4328 10.482 24.7953 11.343 24.4023C11.475 23.4273 11.868 22.7718 12.3 22.3968C8.9625 22.0218 5.475 20.7273 5.475 14.9898C5.475 13.3578 6.0555 12.0093 7.0125 10.9578C6.8625 10.5828 6.3375 9.04534 7.1625 6.98284C7.1625 6.98284 8.418 6.58984 11.2875 8.52184C12.5086 8.18293 13.7703 8.01236 15.0375 8.01484C16.3125 8.01484 17.5875 8.18284 18.7875 8.52034C21.6555 6.57034 22.9125 6.98434 22.9125 6.98434C23.7375 9.04684 23.2125 10.5843 23.0625 10.9593C24.018 12.0093 24.6 13.3398 24.6 14.9898C24.6 20.7468 21.0945 22.0218 17.757 22.3968C18.3 22.8648 18.7695 23.7648 18.7695 25.1718C18.7695 27.1773 18.75 28.7898 18.75 29.2968C18.75 29.6898 19.032 30.1578 19.782 30.0078C22.7595 29.0025 25.3469 27.0888 27.1799 24.5361C29.0128 21.9833 29.9991 18.92 30 15.7773C30 7.48984 23.2875 0.777344 15 0.777344Z" fill="#F8F5EC"/>
</svg>
