<svg width="30" height="30" viewBox="0 0 30 30" fill="none" xmlns="http://www.w3.org/2000/svg">
<g opacity="0.6" clip-path="url(#clip0_2421_1474)">
<path d="M6.25 4.9L6.16429 4.96429L6.1 5.05C5.75064 5.51581 5.45 6.07269 5.45 6.8C5.45 7.49366 5.72331 8.14775 6.1 8.65L6.13198 8.69264L6.16967 8.73033C6.46121 9.02187 6.85122 9.23437 7.27062 9.35H6.2H5.45V10.1V21.6V22.35H6.2H9.9H10.65V21.6V10.1V9.35H9.9H8.70648C9.11708 9.23102 9.5202 8.99606 9.78034 8.59393C10.3155 8.12191 10.55 7.43371 10.55 6.8C10.55 6.07269 10.2494 5.51581 9.9 5.05L9.86802 5.00736L9.83033 4.96967C9.57607 4.71541 9.24186 4.54246 8.94678 4.43374C8.64734 4.32342 8.30846 4.25 8 4.25C7.38976 4.25 6.73535 4.53599 6.25 4.9ZM19.35 21.6V22.35H20.1H23.8H23.9H24.65V21.6V14.3C24.65 12.7243 24.1906 11.4844 23.4114 10.5878C22.6371 9.69656 21.5981 9.20336 20.5382 9.02312C19.4826 8.84359 18.3795 8.96859 17.426 9.34028C17.1215 9.45901 16.8263 9.60541 16.55 9.77915V9.35H15.8H12.1H11.35V10.1V21.6V22.35H12.1H15.7H16.45V21.6V15.5C16.45 14.1695 17.2634 13.6096 17.9256 13.5871C18.2709 13.5753 18.6087 13.7008 18.8659 13.9745C19.1222 14.2473 19.35 14.725 19.35 15.5V21.6ZM0.75 15C0.75 7.11421 7.11421 0.75 15 0.75C22.8858 0.75 29.25 7.11421 29.25 15C29.25 22.8858 22.8858 29.25 15 29.25C7.11421 29.25 0.75 22.8858 0.75 15Z" stroke="#262E34" stroke-width="1.5"/>
</g>
<defs>
<clipPath id="clip0_2421_1474">
<rect width="30" height="30" fill="white"/>
</clipPath>
</defs>
</svg>
