<svg width="30" height="30" viewBox="0 0 30 30" fill="none" xmlns="http://www.w3.org/2000/svg">
<g clip-path="url(#clip0_1795_4196)">
<path d="M6.4 5.1L6.34286 5.14286L6.3 5.2C5.9671 5.64387 5.7 6.14846 5.7 6.8C5.7 7.42911 5.94888 8.03183 6.3 8.5L6.32132 8.52843L6.34645 8.55355C6.75105 8.95816 7.38354 9.2 8 9.2C8.5585 9.2 9.24319 8.99122 9.58844 8.42937C10.0783 8.01313 10.3 7.38773 10.3 6.8C10.3 6.14846 10.0329 5.64387 9.7 5.2L9.67868 5.17157L9.65355 5.14645C9.43405 4.92694 9.13624 4.76997 8.86035 4.66833C8.58156 4.56562 8.27231 4.5 8 4.5C7.45984 4.5 6.8569 4.75733 6.4 5.1ZM9.9 22.1H10.4V21.6V10.1V9.6H9.9H6.2H5.7V10.1V21.6V22.1H6.2H9.9ZM19.6 21.6V22.1H20.1H23.8H23.9H24.4V21.6V14.3C24.4 12.7745 23.9562 11.5958 23.2227 10.7517C22.4924 9.91125 21.5091 9.44182 20.4963 9.26958C19.4863 9.09781 18.4291 9.2176 17.5168 9.57321C17.0769 9.74473 16.6617 9.97489 16.3 10.261V10.1V9.6H15.8H12.1H11.6V10.1V21.6V22.1H12.1H15.7H16.2V21.6V15.5C16.2 14.0463 17.109 13.3648 17.917 13.3372C18.3306 13.3231 18.7392 13.4745 19.0481 13.8033C19.3565 14.1315 19.6 14.675 19.6 15.5V21.6ZM0.5 15C0.5 6.97614 6.97614 0.5 15 0.5C23.0239 0.5 29.5 6.97614 29.5 15C29.5 23.0239 23.0239 29.5 15 29.5C6.97614 29.5 0.5 23.0239 0.5 15Z" stroke="#89BCD9"/>
</g>
<defs>
<clipPath id="clip0_1795_4196">
<rect width="30" height="30" fill="white"/>
</clipPath>
</defs>
</svg>
