<svg width="66" height="62" viewBox="0 0 66 62" fill="none" xmlns="http://www.w3.org/2000/svg">
<path d="M10.52 7.08C9.96 7.08 9.52 7.18667 9.2 7.4C8.90667 7.61333 8.69333 8.01333 8.56 8.6C8.45333 9.18667 8.4 10.0667 8.4 11.24V15.92C8.4 17.1733 8.25333 18.2 7.96 19C7.69333 19.8 7.36 20.4267 6.96 20.88C6.56 21.3067 6.16 21.64 5.76 21.88C6.13333 22.12 6.52 22.4667 6.92 22.92C7.32 23.3467 7.66667 23.92 7.96 24.64C8.25333 25.36 8.4 26.2667 8.4 27.36V32.6C8.4 33.7467 8.45333 34.6133 8.56 35.2C8.69333 35.8133 8.90667 36.2267 9.2 36.44C9.52 36.6533 9.96 36.76 10.52 36.76H12.28V40.04H9.72C9.05333 40.04 8.41333 40.0133 7.8 39.96C7.18667 39.9333 6.62667 39.7733 6.12 39.48C5.64 39.1867 5.25333 38.6667 4.96 37.92C4.66667 37.2 4.52 36.1333 4.52 34.72V28.4C4.52 27.6267 4.41333 26.8667 4.2 26.12C3.98667 25.3733 3.64 24.7467 3.16 24.24C2.70667 23.7333 2.09333 23.48 1.32 23.48V20.2C2.09333 20.1733 2.70667 19.92 3.16 19.44C3.64 18.9333 3.98667 18.3067 4.2 17.56C4.41333 16.7867 4.52 16.0133 4.52 15.24V8.6C4.52 7.34666 4.66667 6.38667 4.96 5.72C5.25333 5.05333 5.64 4.58666 6.12 4.32C6.62667 4.05333 7.18667 3.90667 7.8 3.88C8.44 3.82666 9.08 3.8 9.72 3.8H12.28V7.08H10.52ZM39.5016 31.84C39.0216 32.16 38.3682 32.52 37.5416 32.92C36.7149 33.32 35.7416 33.6533 34.6216 33.92C33.5282 34.1867 32.3282 34.32 31.0216 34.32C28.7816 34.2933 26.7549 33.8933 24.9416 33.12C23.1549 32.3467 21.6349 31.2933 20.3816 29.96C19.1282 28.6267 18.1549 27.0933 17.4616 25.36C16.7949 23.6 16.4616 21.7333 16.4616 19.76C16.4616 17.6 16.8082 15.6133 17.5016 13.8C18.2216 11.96 19.2216 10.3733 20.5016 9.04C21.7816 7.68 23.2882 6.62667 25.0216 5.88C26.7816 5.13333 28.7016 4.76 30.7816 4.76C32.5149 4.76 34.0882 5 35.5016 5.48C36.9149 5.93333 38.1282 6.48 39.1416 7.12L37.5816 10.72C36.7816 10.1867 35.8082 9.68 34.6616 9.2C33.5416 8.72 32.2882 8.48 30.9016 8.48C29.4882 8.48 28.1549 8.76 26.9016 9.32C25.6482 9.88 24.5416 10.6667 23.5816 11.68C22.6216 12.6933 21.8616 13.88 21.3016 15.24C20.7682 16.5733 20.5016 18.0133 20.5016 19.56C20.5016 21.1333 20.7416 22.6 21.2216 23.96C21.7282 25.2933 22.4349 26.4533 23.3416 27.44C24.2749 28.4267 25.3949 29.2 26.7016 29.76C28.0082 30.32 29.4749 30.6 31.1016 30.6C32.5682 30.6 33.8749 30.3733 35.0216 29.92C36.1682 29.4667 37.1149 28.96 37.8616 28.4L39.5016 31.84ZM43.235 31.88C43.235 31.2933 43.4483 30.8 43.875 30.4C44.3283 29.9733 44.8217 29.76 45.355 29.76C45.835 29.76 46.2883 29.9733 46.715 30.4C47.1683 30.8 47.395 31.2933 47.395 31.88C47.395 32.52 47.1683 33.04 46.715 33.44C46.2883 33.8133 45.835 34 45.355 34C44.8217 34 44.3283 33.8133 43.875 33.44C43.4483 33.04 43.235 32.52 43.235 31.88ZM52.9538 36.76C53.5138 36.76 53.9404 36.6533 54.2338 36.44C54.5271 36.2267 54.7271 35.8133 54.8338 35.2C54.9671 34.6133 55.0338 33.7467 55.0338 32.6V27.36C55.0338 26.24 55.1804 25.32 55.4738 24.6C55.7938 23.88 56.1538 23.3067 56.5538 22.88C56.9804 22.4533 57.3538 22.1467 57.6738 21.96C57.3538 21.6933 56.9804 21.3467 56.5538 20.92C56.1271 20.4933 55.7671 19.92 55.4738 19.2C55.1804 18.4533 55.0338 17.5333 55.0338 16.44V11.2C55.0338 10.0267 54.9671 9.14667 54.8338 8.56C54.7271 7.97333 54.5271 7.58666 54.2338 7.4C53.9404 7.18667 53.5138 7.08 52.9538 7.08H51.1538V3.8H53.6738C54.3138 3.8 54.9404 3.81333 55.5538 3.84C56.1671 3.86667 56.7271 4.01333 57.2338 4.28C57.7404 4.54667 58.1404 5.01333 58.4338 5.68C58.7538 6.34667 58.9138 7.30667 58.9138 8.56V14.88C58.9138 15.4133 58.9538 16 59.0338 16.64C59.1404 17.2533 59.3004 17.84 59.5138 18.4C59.7538 18.96 60.0871 19.4267 60.5138 19.8C60.9404 20.1467 61.4738 20.3333 62.1138 20.36V23.64C61.4738 23.64 60.9404 23.8267 60.5138 24.2C60.0871 24.5733 59.7538 25.04 59.5138 25.6C59.3004 26.1333 59.1404 26.72 59.0338 27.36C58.9538 27.9733 58.9138 28.56 58.9138 29.12V35.24C58.9138 36.4933 58.7671 37.4533 58.4738 38.12C58.1804 38.7867 57.7804 39.2533 57.2738 39.52C56.7671 39.7867 56.2071 39.9333 55.5938 39.96C54.9804 40.0133 54.3404 40.04 53.6738 40.04H51.1538V36.76H52.9538Z" fill="#89BCD9" fill-opacity="0.8"/>
<path d="M3.984 57.128C3.39733 57.128 2.864 56.9893 2.384 56.712C1.904 56.424 1.52 56.0293 1.232 55.528C0.954667 55.0267 0.816 54.4613 0.816 53.832C0.816 53.16 0.96 52.5787 1.248 52.088C1.536 51.5973 1.92533 51.2187 2.416 50.952C2.91733 50.6853 3.46667 50.552 4.064 50.552C4.66133 50.552 5.22667 50.7067 5.76 51.016C6.304 51.3253 6.69867 51.7307 6.944 52.232L6.816 52.584V44.84H7.568V57H6.8V55.08L6.96 55.432C6.69333 55.9333 6.29333 56.344 5.76 56.664C5.22667 56.9733 4.63467 57.128 3.984 57.128ZM4.176 56.472C4.656 56.472 5.088 56.3707 5.472 56.168C5.856 55.9547 6.16533 55.672 6.4 55.32C6.63467 54.9573 6.768 54.552 6.8 54.104V53.304C6.72533 52.8987 6.56 52.536 6.304 52.216C6.048 51.896 5.73867 51.6453 5.376 51.464C5.01333 51.272 4.61333 51.176 4.176 51.176C3.696 51.176 3.25867 51.288 2.864 51.512C2.46933 51.736 2.15467 52.0453 1.92 52.44C1.68533 52.8347 1.568 53.2933 1.568 53.816C1.568 54.3067 1.68533 54.7547 1.92 55.16C2.15467 55.5547 2.46933 55.8747 2.864 56.12C3.26933 56.3547 3.70667 56.472 4.176 56.472ZM13.1284 57.128C12.4777 57.128 11.9017 56.984 11.4004 56.696C10.899 56.408 10.5044 56.0187 10.2164 55.528C9.93904 55.0267 9.80038 54.4667 9.80038 53.848C9.80038 53.24 9.94971 52.6853 10.2484 52.184C10.547 51.6827 10.947 51.2827 11.4484 50.984C11.9604 50.6853 12.5257 50.536 13.1444 50.536C13.891 50.536 14.515 50.7547 15.0164 51.192C15.5284 51.6293 15.8964 52.2 16.1204 52.904L10.6484 55.016L10.4244 54.472L15.4324 52.52L15.2724 52.744C15.091 52.3173 14.8137 51.9493 14.4404 51.64C14.0777 51.3307 13.6297 51.176 13.0964 51.176C12.6164 51.176 12.1844 51.2933 11.8004 51.528C11.4164 51.7627 11.107 52.0773 10.8724 52.472C10.6484 52.8667 10.5364 53.3147 10.5364 53.816C10.5364 54.2853 10.643 54.7227 10.8564 55.128C11.0804 55.5333 11.3897 55.8587 11.7844 56.104C12.179 56.3493 12.6324 56.472 13.1444 56.472C13.4857 56.472 13.811 56.408 14.1204 56.28C14.4404 56.152 14.723 55.9867 14.9684 55.784L15.3524 56.328C15.0537 56.5627 14.707 56.7547 14.3124 56.904C13.9284 57.0533 13.5337 57.128 13.1284 57.128ZM20.2566 57.24L17.0886 50.744H17.9686L20.5766 56.424L20.1126 56.408L22.6246 50.744H23.4566L20.3526 57.24H20.2566ZM27.9721 57.128C27.3215 57.128 26.7455 56.984 26.2441 56.696C25.7428 56.408 25.3481 56.0187 25.0601 55.528C24.7828 55.0267 24.6441 54.4667 24.6441 53.848C24.6441 53.24 24.7935 52.6853 25.0921 52.184C25.3908 51.6827 25.7908 51.2827 26.2921 50.984C26.8041 50.6853 27.3695 50.536 27.9881 50.536C28.7348 50.536 29.3588 50.7547 29.8601 51.192C30.3721 51.6293 30.7401 52.2 30.9641 52.904L25.4921 55.016L25.2681 54.472L30.2761 52.52L30.1161 52.744C29.9348 52.3173 29.6575 51.9493 29.2841 51.64C28.9215 51.3307 28.4735 51.176 27.9401 51.176C27.4601 51.176 27.0281 51.2933 26.6441 51.528C26.2601 51.7627 25.9508 52.0773 25.7161 52.472C25.4921 52.8667 25.3801 53.3147 25.3801 53.816C25.3801 54.2853 25.4868 54.7227 25.7001 55.128C25.9241 55.5333 26.2335 55.8587 26.6281 56.104C27.0228 56.3493 27.4761 56.472 27.9881 56.472C28.3295 56.472 28.6548 56.408 28.9641 56.28C29.2841 56.152 29.5668 55.9867 29.8121 55.784L30.1961 56.328C29.8975 56.5627 29.5508 56.7547 29.1561 56.904C28.7721 57.0533 28.3775 57.128 27.9721 57.128ZM33.049 44.84H33.801V57H33.049V44.84ZM36.0348 53.832C36.0348 53.224 36.1788 52.6693 36.4668 52.168C36.7654 51.6667 37.1654 51.272 37.6668 50.984C38.1788 50.6853 38.7494 50.536 39.3788 50.536C40.0188 50.536 40.5894 50.6853 41.0908 50.984C41.5921 51.272 41.9868 51.6667 42.2748 52.168C42.5628 52.6693 42.7068 53.224 42.7068 53.832C42.7068 54.44 42.5628 54.9947 42.2748 55.496C41.9868 55.9973 41.5868 56.3973 41.0748 56.696C40.5734 56.984 40.0081 57.128 39.3788 57.128C38.7388 57.128 38.1681 56.9893 37.6668 56.712C37.1654 56.424 36.7654 56.0347 36.4668 55.544C36.1788 55.0427 36.0348 54.472 36.0348 53.832ZM36.7868 53.848C36.7868 54.3387 36.8988 54.7867 37.1228 55.192C37.3574 55.5867 37.6668 55.9013 38.0508 56.136C38.4454 56.3707 38.8828 56.488 39.3628 56.488C39.8428 56.488 40.2748 56.3707 40.6588 56.136C41.0534 55.9013 41.3628 55.5867 41.5868 55.192C41.8214 54.7867 41.9388 54.3387 41.9388 53.848C41.9388 53.3573 41.8214 52.9147 41.5868 52.52C41.3628 52.1147 41.0534 51.7947 40.6588 51.56C40.2748 51.3147 39.8428 51.192 39.3628 51.192C38.8721 51.192 38.4294 51.32 38.0348 51.576C37.6508 51.8213 37.3468 52.1467 37.1228 52.552C36.8988 52.9573 36.7868 53.3893 36.7868 53.848ZM48.3956 57.128C47.7983 57.128 47.2383 56.9733 46.7156 56.664C46.193 56.344 45.809 55.9333 45.5636 55.432L45.6916 55.16V60.008H44.9396V50.696H45.6116L45.6916 52.744L45.5476 52.28C45.825 51.7787 46.2303 51.368 46.7636 51.048C47.297 50.7173 47.8783 50.552 48.5076 50.552C49.105 50.552 49.6436 50.696 50.1236 50.984C50.6036 51.272 50.9823 51.6667 51.2596 52.168C51.5476 52.6587 51.6916 53.224 51.6916 53.864C51.6916 54.4933 51.5423 55.0587 51.2436 55.56C50.9556 56.0507 50.561 56.4347 50.0596 56.712C49.569 56.9893 49.0143 57.128 48.3956 57.128ZM48.2676 56.504C48.7583 56.504 49.201 56.3867 49.5956 56.152C50.001 55.9173 50.321 55.6027 50.5556 55.208C50.801 54.8027 50.9236 54.3547 50.9236 53.864C50.9236 53.3627 50.8063 52.9147 50.5716 52.52C50.337 52.1147 50.0223 51.7947 49.6276 51.56C49.2436 51.3253 48.8063 51.208 48.3156 51.208C47.8463 51.208 47.4196 51.3147 47.0356 51.528C46.6516 51.7413 46.3423 52.0293 46.1076 52.392C45.873 52.7547 45.7343 53.1653 45.6916 53.624V54.136C45.7236 54.5733 45.857 54.9733 46.0916 55.336C46.337 55.6987 46.6463 55.9867 47.0196 56.2C47.4036 56.4027 47.8196 56.504 48.2676 56.504ZM56.644 57.128C55.9933 57.128 55.4173 56.984 54.916 56.696C54.4147 56.408 54.02 56.0187 53.732 55.528C53.4547 55.0267 53.316 54.4667 53.316 53.848C53.316 53.24 53.4653 52.6853 53.764 52.184C54.0627 51.6827 54.4627 51.2827 54.964 50.984C55.476 50.6853 56.0413 50.536 56.66 50.536C57.4067 50.536 58.0307 50.7547 58.532 51.192C59.044 51.6293 59.412 52.2 59.636 52.904L54.164 55.016L53.94 54.472L58.948 52.52L58.788 52.744C58.6067 52.3173 58.3293 51.9493 57.956 51.64C57.5933 51.3307 57.1453 51.176 56.612 51.176C56.132 51.176 55.7 51.2933 55.316 51.528C54.932 51.7627 54.6227 52.0773 54.388 52.472C54.164 52.8667 54.052 53.3147 54.052 53.816C54.052 54.2853 54.1587 54.7227 54.372 55.128C54.596 55.5333 54.9053 55.8587 55.3 56.104C55.6947 56.3493 56.148 56.472 56.66 56.472C57.0013 56.472 57.3267 56.408 57.636 56.28C57.956 56.152 58.2387 55.9867 58.484 55.784L58.868 56.328C58.5693 56.5627 58.2227 56.7547 57.828 56.904C57.444 57.0533 57.0493 57.128 56.644 57.128ZM62.3769 50.744L62.4569 52.664L62.3609 52.424C62.4995 52.04 62.7182 51.7093 63.0169 51.432C63.3155 51.1547 63.6462 50.9413 64.0089 50.792C64.3822 50.6427 64.7395 50.568 65.0809 50.568L65.0489 51.304C64.5689 51.304 64.1315 51.4107 63.7369 51.624C63.3529 51.8373 63.0435 52.1253 62.8089 52.488C62.5849 52.84 62.4729 53.24 62.4729 53.688V57H61.7209V50.744H62.3769Z" fill="#89BCD9" fill-opacity="0.8"/>
<path d="M51.6 30.14C51.88 30.14 52.0933 30.0733 52.24 29.94C52.3867 29.8067 52.4867 29.58 52.54 29.26C52.6067 28.94 52.64 28.5067 52.64 27.96V24.68C52.64 24.1067 52.7133 23.64 52.86 23.28C53.02 22.92 53.2 22.64 53.4 22.44C53.6133 22.24 53.8 22.0933 53.96 22C53.76 21.8667 53.5533 21.6933 53.34 21.48C53.14 21.2667 52.9733 20.9533 52.84 20.54C52.7067 20.1267 52.64 19.5667 52.64 18.86V16.02C52.64 15.46 52.6067 15.0267 52.54 14.72C52.4867 14.4 52.3867 14.18 52.24 14.06C52.0933 13.9267 51.88 13.86 51.6 13.86H50.56V13H51.52C51.7867 13 52.04 13.0133 52.28 13.04C52.5333 13.0533 52.76 13.1267 52.96 13.26C53.16 13.3933 53.32 13.6267 53.44 13.96C53.56 14.28 53.62 14.7533 53.62 15.38V18.4C53.62 18.64 53.6333 18.9333 53.66 19.28C53.6867 19.6267 53.7467 19.9667 53.84 20.3C53.9333 20.6333 54.0867 20.92 54.3 21.16C54.5267 21.3867 54.8267 21.5067 55.2 21.52V22.5C54.8267 22.5133 54.5267 22.64 54.3 22.88C54.0867 23.1067 53.9333 23.3867 53.84 23.72C53.7467 24.0533 53.6867 24.3933 53.66 24.74C53.6333 25.0867 53.62 25.38 53.62 25.62V28.62C53.62 29.2333 53.56 29.7067 53.44 30.04C53.32 30.3733 53.16 30.6 52.96 30.72C52.76 30.8533 52.5333 30.9267 52.28 30.94C52.04 30.9667 51.7867 30.98 51.52 30.98H50.56V30.14H51.6Z" fill="white" fill-opacity="0.8"/>
<path d="M12.24 13.86C11.9733 13.86 11.76 13.9267 11.6 14.06C11.4533 14.1933 11.3467 14.42 11.28 14.74C11.2267 15.0467 11.2 15.4733 11.2 16.02V18.76C11.2 19.5067 11.1333 20.0933 11 20.52C10.8667 20.9467 10.7 21.2667 10.5 21.48C10.3 21.6933 10.0933 21.86 9.88 21.98C10.0933 22.1133 10.3 22.2933 10.5 22.52C10.7 22.7333 10.8667 23.0467 11 23.46C11.1333 23.86 11.2 24.4133 11.2 25.12V27.96C11.2 28.5067 11.2267 28.94 11.28 29.26C11.3467 29.58 11.4533 29.8067 11.6 29.94C11.76 30.0733 11.9733 30.14 12.24 30.14H13.28V30.98H12.3C12.0067 30.98 11.7333 30.9667 11.48 30.94C11.2267 30.9133 11.0067 30.82 10.82 30.66C10.6333 30.5 10.4867 30.22 10.38 29.82C10.2733 29.42 10.22 28.84 10.22 28.08V25.06C10.22 24.6867 10.1733 24.3067 10.08 23.92C9.98667 23.52 9.82 23.18 9.58 22.9C9.35333 22.62 9.03333 22.4733 8.62 22.46V21.5C9.03333 21.4733 9.35333 21.3267 9.58 21.06C9.82 20.78 9.98667 20.44 10.08 20.04C10.1733 19.64 10.22 19.2533 10.22 18.88V15.38C10.22 14.7667 10.28 14.2933 10.4 13.96C10.52 13.6267 10.6733 13.3933 10.86 13.26C11.06 13.1267 11.2867 13.0533 11.54 13.04C11.7933 13.0133 12.0467 13 12.3 13H13.28V13.86H12.24Z" fill="white" fill-opacity="0.8"/>
</svg>
