<svg width="60" height="72" viewBox="0 0 60 72" fill="none" xmlns="http://www.w3.org/2000/svg">
<path d="M12.3887 44.0137C12.3887 43.5078 12.514 43.0498 12.7646 42.6396C13.0153 42.2249 13.3503 41.8945 13.7695 41.6484C14.1888 41.4023 14.6536 41.2793 15.1641 41.2793H20.2568V42.7148H15.1641C14.7949 42.7148 14.4805 42.8424 14.2207 43.0977C13.9609 43.3483 13.8311 43.6536 13.8311 44.0137V48.293C13.8311 48.6393 13.9609 48.9378 14.2207 49.1885C14.4805 49.4346 14.7949 49.5576 15.1641 49.5576H20.2568V51H15.1641C14.6536 51 14.1888 50.8792 13.7695 50.6377C13.3503 50.3962 13.0153 50.0726 12.7646 49.667C12.514 49.2568 12.3887 48.8057 12.3887 48.3135V44.0137ZM21.8018 50.1797C21.8018 49.9336 21.8883 49.724 22.0615 49.5508C22.2347 49.3776 22.4443 49.291 22.6904 49.291C22.9411 49.291 23.1507 49.3776 23.3193 49.5508C23.4925 49.7194 23.5791 49.929 23.5791 50.1797C23.5791 50.4303 23.4925 50.6423 23.3193 50.8154C23.1507 50.984 22.9411 51.0684 22.6904 51.0684C22.4443 51.0684 22.2347 50.9818 22.0615 50.8086C21.8883 50.6354 21.8018 50.4258 21.8018 50.1797ZM28.1182 41.2793H29.916L33.3955 51H31.8574L30.7979 48.0742H28.084L28.6035 46.6387H30.2783L29.0205 43.166L26.1768 51H24.6387L28.1182 41.2793ZM34.4619 50.1797C34.4619 49.9336 34.5485 49.724 34.7217 49.5508C34.8949 49.3776 35.1045 49.291 35.3506 49.291C35.6012 49.291 35.8109 49.3776 35.9795 49.5508C36.1527 49.7194 36.2393 49.929 36.2393 50.1797C36.2393 50.4303 36.1527 50.6423 35.9795 50.8154C35.8109 50.984 35.6012 51.0684 35.3506 51.0684C35.1045 51.0684 34.8949 50.9818 34.7217 50.8086C34.5485 50.6354 34.4619 50.4258 34.4619 50.1797ZM37.9824 41.2793H43.123C43.5651 41.2793 43.9661 41.3887 44.3262 41.6074C44.6908 41.8216 44.9801 42.1087 45.1943 42.4688C45.4131 42.8288 45.5225 43.2298 45.5225 43.6719V44.6426C45.5225 45.0846 45.4154 45.4834 45.2012 45.8389C44.9915 46.1943 44.7044 46.4769 44.3398 46.6865C43.9753 46.8962 43.5674 47.001 43.1162 47.001L46.0146 51H44.2578L41.3594 47.001H40.2451V45.5654H43.123C43.3919 45.5654 43.6198 45.4743 43.8066 45.292C43.9935 45.1051 44.0869 44.8818 44.0869 44.6221V43.6719C44.0869 43.4076 43.9935 43.182 43.8066 42.9951C43.6198 42.8083 43.3919 42.7148 43.123 42.7148H39.4248V51H37.9824V41.2793Z" fill="#F8F5EC"/>
<path d="M3.486 67.112C2.97267 67.112 2.506 66.9907 2.086 66.748C1.666 66.496 1.33 66.1507 1.078 65.712C0.835333 65.2733 0.714 64.7787 0.714 64.228C0.714 63.64 0.84 63.1313 1.092 62.702C1.344 62.2727 1.68467 61.9413 2.114 61.708C2.55267 61.4747 3.03333 61.358 3.556 61.358C4.07867 61.358 4.57333 61.4933 5.04 61.764C5.516 62.0347 5.86133 62.3893 6.076 62.828L5.964 63.136V56.36H6.622V67H5.95V65.32L6.09 65.628C5.85667 66.0667 5.50667 66.426 5.04 66.706C4.57333 66.9767 4.05533 67.112 3.486 67.112ZM3.654 66.538C4.074 66.538 4.452 66.4493 4.788 66.272C5.124 66.0853 5.39467 65.838 5.6 65.53C5.80533 65.2127 5.922 64.858 5.95 64.466V63.766C5.88467 63.4113 5.74 63.094 5.516 62.814C5.292 62.534 5.02133 62.3147 4.704 62.156C4.38667 61.988 4.03667 61.904 3.654 61.904C3.234 61.904 2.85133 62.002 2.506 62.198C2.16067 62.394 1.88533 62.6647 1.68 63.01C1.47467 63.3553 1.372 63.7567 1.372 64.214C1.372 64.6433 1.47467 65.0353 1.68 65.39C1.88533 65.7353 2.16067 66.0153 2.506 66.23C2.86067 66.4353 3.24333 66.538 3.654 66.538ZM11.4873 67.112C10.918 67.112 10.414 66.986 9.97533 66.734C9.53666 66.482 9.19133 66.1413 8.93933 65.712C8.69666 65.2733 8.57533 64.7833 8.57533 64.242C8.57533 63.71 8.70599 63.2247 8.96733 62.786C9.22866 62.3473 9.57866 61.9973 10.0173 61.736C10.4653 61.4747 10.96 61.344 11.5013 61.344C12.1547 61.344 12.7007 61.5353 13.1393 61.918C13.5873 62.3007 13.9093 62.8 14.1053 63.416L9.31733 65.264L9.12133 64.788L13.5033 63.08L13.3633 63.276C13.2047 62.9027 12.962 62.5807 12.6353 62.31C12.318 62.0393 11.926 61.904 11.4593 61.904C11.0393 61.904 10.6613 62.0067 10.3253 62.212C9.98933 62.4173 9.71866 62.6927 9.51333 63.038C9.31733 63.3833 9.21933 63.7753 9.21933 64.214C9.21933 64.6247 9.31266 65.0073 9.49933 65.362C9.69533 65.7167 9.96599 66.0013 10.3113 66.216C10.6567 66.4307 11.0533 66.538 11.5013 66.538C11.8 66.538 12.0847 66.482 12.3553 66.37C12.6353 66.258 12.8827 66.1133 13.0973 65.936L13.4333 66.412C13.172 66.6173 12.8687 66.7853 12.5233 66.916C12.1873 67.0467 11.842 67.112 11.4873 67.112ZM17.7245 67.21L14.9525 61.526H15.7225L18.0045 66.496L17.5985 66.482L19.7965 61.526H20.5245L17.8085 67.21H17.7245ZM24.4756 67.112C23.9063 67.112 23.4023 66.986 22.9636 66.734C22.5249 66.482 22.1796 66.1413 21.9276 65.712C21.6849 65.2733 21.5636 64.7833 21.5636 64.242C21.5636 63.71 21.6943 63.2247 21.9556 62.786C22.2169 62.3473 22.5669 61.9973 23.0056 61.736C23.4536 61.4747 23.9483 61.344 24.4896 61.344C25.1429 61.344 25.6889 61.5353 26.1276 61.918C26.5756 62.3007 26.8976 62.8 27.0936 63.416L22.3056 65.264L22.1096 64.788L26.4916 63.08L26.3516 63.276C26.1929 62.9027 25.9503 62.5807 25.6236 62.31C25.3063 62.0393 24.9143 61.904 24.4476 61.904C24.0276 61.904 23.6496 62.0067 23.3136 62.212C22.9776 62.4173 22.7069 62.6927 22.5016 63.038C22.3056 63.3833 22.2076 63.7753 22.2076 64.214C22.2076 64.6247 22.3009 65.0073 22.4876 65.362C22.6836 65.7167 22.9543 66.0013 23.2996 66.216C23.6449 66.4307 24.0416 66.538 24.4896 66.538C24.7883 66.538 25.0729 66.482 25.3436 66.37C25.6236 66.258 25.8709 66.1133 26.0856 65.936L26.4216 66.412C26.1603 66.6173 25.8569 66.7853 25.5116 66.916C25.1756 67.0467 24.8303 67.112 24.4756 67.112ZM28.9179 56.36H29.5759V67H28.9179V56.36ZM31.5304 64.228C31.5304 63.696 31.6564 63.2107 31.9084 62.772C32.1697 62.3333 32.5197 61.988 32.9584 61.736C33.4064 61.4747 33.9057 61.344 34.4564 61.344C35.0164 61.344 35.5157 61.4747 35.9544 61.736C36.3931 61.988 36.7384 62.3333 36.9904 62.772C37.2424 63.2107 37.3684 63.696 37.3684 64.228C37.3684 64.76 37.2424 65.2453 36.9904 65.684C36.7384 66.1227 36.3884 66.4727 35.9404 66.734C35.5017 66.986 35.0071 67.112 34.4564 67.112C33.8964 67.112 33.3971 66.9907 32.9584 66.748C32.5197 66.496 32.1697 66.1553 31.9084 65.726C31.6564 65.2873 31.5304 64.788 31.5304 64.228ZM32.1884 64.242C32.1884 64.6713 32.2864 65.0633 32.4824 65.418C32.6877 65.7633 32.9584 66.0387 33.2944 66.244C33.6397 66.4493 34.0224 66.552 34.4424 66.552C34.8624 66.552 35.2404 66.4493 35.5764 66.244C35.9217 66.0387 36.1924 65.7633 36.3884 65.418C36.5937 65.0633 36.6964 64.6713 36.6964 64.242C36.6964 63.8127 36.5937 63.4253 36.3884 63.08C36.1924 62.7253 35.9217 62.4453 35.5764 62.24C35.2404 62.0253 34.8624 61.918 34.4424 61.918C34.0131 61.918 33.6257 62.03 33.2804 62.254C32.9444 62.4687 32.6784 62.7533 32.4824 63.108C32.2864 63.4627 32.1884 63.8407 32.1884 64.242ZM42.3462 67.112C41.8235 67.112 41.3335 66.9767 40.8762 66.706C40.4188 66.426 40.0828 66.0667 39.8682 65.628L39.9802 65.39V69.632H39.3222V61.484H39.9102L39.9802 63.276L39.8542 62.87C40.0968 62.4313 40.4515 62.072 40.9182 61.792C41.3848 61.5027 41.8935 61.358 42.4442 61.358C42.9668 61.358 43.4382 61.484 43.8582 61.736C44.2782 61.988 44.6095 62.3333 44.8522 62.772C45.1042 63.2013 45.2302 63.696 45.2302 64.256C45.2302 64.8067 45.0995 65.3013 44.8382 65.74C44.5862 66.1693 44.2408 66.5053 43.8022 66.748C43.3728 66.9907 42.8875 67.112 42.3462 67.112ZM42.2342 66.566C42.6635 66.566 43.0508 66.4633 43.3962 66.258C43.7508 66.0527 44.0308 65.7773 44.2362 65.432C44.4508 65.0773 44.5582 64.6853 44.5582 64.256C44.5582 63.8173 44.4555 63.4253 44.2502 63.08C44.0448 62.7253 43.7695 62.4453 43.4242 62.24C43.0882 62.0347 42.7055 61.932 42.2762 61.932C41.8655 61.932 41.4922 62.0253 41.1562 62.212C40.8202 62.3987 40.5495 62.6507 40.3442 62.968C40.1388 63.2853 40.0175 63.6447 39.9802 64.046V64.494C40.0082 64.8767 40.1248 65.2267 40.3302 65.544C40.5448 65.8613 40.8155 66.1133 41.1422 66.3C41.4782 66.4773 41.8422 66.566 42.2342 66.566ZM49.5635 67.112C48.9942 67.112 48.4902 66.986 48.0515 66.734C47.6128 66.482 47.2675 66.1413 47.0155 65.712C46.7728 65.2733 46.6515 64.7833 46.6515 64.242C46.6515 63.71 46.7822 63.2247 47.0435 62.786C47.3048 62.3473 47.6548 61.9973 48.0935 61.736C48.5415 61.4747 49.0362 61.344 49.5775 61.344C50.2308 61.344 50.7768 61.5353 51.2155 61.918C51.6635 62.3007 51.9855 62.8 52.1815 63.416L47.3935 65.264L47.1975 64.788L51.5795 63.08L51.4395 63.276C51.2808 62.9027 51.0382 62.5807 50.7115 62.31C50.3942 62.0393 50.0022 61.904 49.5355 61.904C49.1155 61.904 48.7375 62.0067 48.4015 62.212C48.0655 62.4173 47.7948 62.6927 47.5895 63.038C47.3935 63.3833 47.2955 63.7753 47.2955 64.214C47.2955 64.6247 47.3888 65.0073 47.5755 65.362C47.7715 65.7167 48.0422 66.0013 48.3875 66.216C48.7328 66.4307 49.1295 66.538 49.5775 66.538C49.8762 66.538 50.1608 66.482 50.4315 66.37C50.7115 66.258 50.9588 66.1133 51.1735 65.936L51.5095 66.412C51.2482 66.6173 50.9448 66.7853 50.5995 66.916C50.2635 67.0467 49.9182 67.112 49.5635 67.112ZM54.5798 61.526L54.6498 63.206L54.5658 62.996C54.6871 62.66 54.8784 62.3707 55.1398 62.128C55.4011 61.8853 55.6904 61.6987 56.0078 61.568C56.3344 61.4373 56.6471 61.372 56.9458 61.372L56.9178 62.016C56.4978 62.016 56.1151 62.1093 55.7698 62.296C55.4338 62.4827 55.1631 62.7347 54.9578 63.052C54.7618 63.36 54.6638 63.71 54.6638 64.102V67H54.0058V61.526H54.5798Z" fill="#262E34"/>
<path d="M16.6406 27.8594C16.1354 27.8438 15.6979 27.7266 15.3281 27.5078C14.9583 27.2891 14.651 27 14.4062 26.6406C14.1719 26.2969 13.9948 25.9115 13.875 25.4844C13.7552 25.0625 13.6953 24.6432 13.6953 24.2266V22.9062C13.6953 22.1562 13.5156 21.612 13.1562 21.2734C12.8021 20.9349 12.2578 20.763 11.5234 20.7578V19.625C12.2578 19.625 12.8021 19.4583 13.1562 19.125C13.5156 18.7865 13.6953 18.2396 13.6953 17.4844V16.1562C13.6953 15.7344 13.75 15.3047 13.8594 14.8672C13.974 14.4245 14.1536 14.0286 14.3984 13.6797C14.6276 13.3464 14.9271 13.0755 15.2969 12.8672C15.6667 12.6536 16.1146 12.5391 16.6406 12.5234L16.8047 13.4219C16.4297 13.4323 16.1302 13.5208 15.9062 13.6875C15.6875 13.8542 15.5234 14.0651 15.4141 14.3203C15.2995 14.5807 15.2266 14.8724 15.1953 15.1953C15.1641 15.5182 15.1484 15.8385 15.1484 16.1562V17.4844C15.1484 18.1094 15.0026 18.6589 14.7109 19.1328C14.4245 19.6016 13.9792 19.9583 13.375 20.2031C13.9792 20.4427 14.4245 20.7995 14.7109 21.2734C14.9974 21.7422 15.1432 22.2865 15.1484 22.9062V24.2266C15.1484 24.5495 15.1745 24.8698 15.2266 25.1875C15.2786 25.5104 15.3698 25.7995 15.5 26.0547C15.625 26.3151 15.7917 26.5286 16 26.6953C16.2135 26.862 16.4818 26.9505 16.8047 26.9609L16.6406 27.8594Z" fill="#F8F5EC"/>
<path d="M41.5234 26.9609C41.8411 26.9505 42.1068 26.862 42.3203 26.6953C42.5339 26.5286 42.7057 26.3151 42.8359 26.0547C42.9609 25.7995 43.0495 25.5104 43.1016 25.1875C43.1589 24.8698 43.1875 24.5495 43.1875 24.2266V22.9062C43.1875 22.4948 43.2474 22.1146 43.3672 21.7656C43.4922 21.4167 43.6823 21.1146 43.9375 20.8594C44.0729 20.724 44.224 20.6016 44.3906 20.4922C44.5625 20.3828 44.75 20.2865 44.9531 20.2031C44.7448 20.1198 44.5521 20.0208 44.375 19.9062C44.2031 19.7917 44.0521 19.6641 43.9219 19.5234C43.6719 19.263 43.487 18.9609 43.3672 18.6172C43.2474 18.2682 43.1875 17.8906 43.1875 17.4844V16.1562C43.1875 15.8385 43.1693 15.5182 43.1328 15.1953C43.1016 14.8724 43.0312 14.5807 42.9219 14.3203C42.8073 14.0651 42.6406 13.8542 42.4219 13.6875C42.2031 13.5208 41.9062 13.4323 41.5312 13.4219L41.6875 12.5234C42.1927 12.5391 42.625 12.6458 42.9844 12.8438C43.349 13.0417 43.6484 13.2995 43.8828 13.6172C44.1484 13.9766 44.3385 14.3802 44.4531 14.8281C44.5729 15.276 44.6328 15.7188 44.6328 16.1562V17.4844C44.6328 17.7969 44.6615 18.0729 44.7188 18.3125C44.7812 18.5469 44.8724 18.75 44.9922 18.9219C45.1641 19.1667 45.401 19.3464 45.7031 19.4609C46.0104 19.5703 46.3776 19.625 46.8047 19.625V20.7578C46.4297 20.763 46.1016 20.8099 45.8203 20.8984C45.5443 20.9818 45.3177 21.1146 45.1406 21.2969C44.9688 21.474 44.8411 21.6953 44.7578 21.9609C44.6745 22.2266 44.6328 22.5417 44.6328 22.9062V24.2266C44.6328 24.6432 44.5755 25.0625 44.4609 25.4844C44.3464 25.9115 44.1693 26.2995 43.9297 26.6484C43.6849 26.9974 43.3776 27.2839 43.0078 27.5078C42.638 27.7318 42.1979 27.849 41.6875 27.8594L41.5234 26.9609Z" fill="#F8F5EC"/>
<path d="M35.1745 35H42.6913L53 20.3285L42.6913 5H35.1745L21.2148 35H14.3423L5 20.3285L14.3423 5H21.2148" stroke="#262E34" stroke-opacity="0.8" stroke-width="4" stroke-linecap="round"/>
</svg>
